<?xml version="1.0" encoding="UTF-8"?>
<!-- Generated by Pixelmator Pro 3.6.14 -->
<svg width="2500" height="2500" viewBox="0 0 2500 2500" xmlns="http://www.w3.org/2000/svg">
    <path id="Path" fill="#ffffff" stroke="none" d="M 2394.873047 1499.257813 C 2531.708984 1362.421753 2531.699219 1139.775391 2394.873047 1002.939453 C 2328.59375 936.650391 2240.458984 900.15625 2146.71875 900.15625 C 2124.453125 900.15625 2102.548828 902.1875 2081.171875 906.181641 C 2174.316406 842.470703 2234.6875 735.332031 2234.6875 616.201172 C 2234.6875 422.685547 2077.246094 265.253906 1883.730469 265.253906 C 1764.365234 265.253906 1657.041016 325.849609 1593.369141 419.316406 C 1614.433472 308.212891 1581.396484 189.462891 1496.982422 105.058594 C 1430.722656 38.769531 1342.578125 2.265625 1248.847656 2.265625 C 1155.097656 2.265625 1066.972656 38.769531 1000.683594 105.058594 C 916.279358 189.462891 883.242188 308.212891 904.296875 419.316406 C 840.634766 325.859375 733.310608 265.253906 613.935547 265.253906 C 420.429657 265.253906 262.998047 422.675781 262.998047 616.201172 C 262.998047 735.341797 323.349609 842.470703 416.49411 906.181641 C 394.881104 902.15564 372.941833 900.138672 350.957031 900.15625 C 257.207031 900.15625 169.082016 936.660156 102.802742 1002.949219 C 36.503906 1069.228516 0 1157.363281 0 1251.09375 C 0 1344.84375 36.503906 1432.968628 102.792969 1499.257813 C 169.072266 1565.537109 257.207031 1602.050781 350.9375 1602.050781 C 373.203125 1602.050781 395.107422 1600.019531 416.484375 1596.015625 C 323.339844 1659.736328 262.988281 1766.875 262.988281 1886.005859 C 262.988281 2079.511719 420.410156 2236.943359 613.925781 2236.943359 C 733.30072 2236.943359 840.634766 2176.337891 904.296875 2082.880859 C 883.232422 2193.994141 916.26947 2312.744141 1000.683594 2397.138672 C 1066.962891 2463.427734 1155.097656 2499.931641 1248.828125 2499.931641 C 1342.578125 2499.931641 1430.712891 2463.427734 1496.99231 2397.138672 C 1581.396484 2312.734375 1614.433472 2193.984375 1593.369141 2082.880859 C 1657.041016 2176.337891 1764.365234 2236.943359 1883.730469 2236.943359 C 2077.246094 2236.943359 2234.677734 2079.521484 2234.677734 1886.005859 C 2234.677734 1766.865234 2174.326172 1659.736328 2081.171875 1596.015625 C 2102.548828 1600.019531 2124.462891 1602.050781 2146.71875 1602.050781 C 2240.458984 1602.050781 2328.59375 1565.537109 2394.873047 1499.257813"/>
    <path id="path1" fill="#41b0f6" stroke="none" d="M 2288.974609 1108.769531 C 2210.371094 1030.175781 2082.929688 1030.175781 2004.326172 1108.769531 L 1592.373047 1108.769531 L 1883.671875 817.480469 C 1994.833984 817.480469 2084.941406 727.363281 2084.941406 616.201172 C 2084.941406 505.039063 1994.833984 414.912109 1883.671875 414.912109 C 1772.5 414.912109 1682.392456 505.039063 1682.392456 616.201172 L 1391.09375 907.5 L 1391.09375 495.537109 C 1469.697266 416.933594 1469.697266 289.492188 1391.09375 210.888672 C 1312.480469 132.275391 1185.039063 132.275391 1106.435547 210.888672 C 1027.832031 289.501953 1027.832031 416.943359 1106.435547 495.537109 L 1106.435547 907.5 L 815.146484 616.191406 C 815.146484 505.039063 725.029236 414.921875 613.867188 414.921875 C 502.705078 414.921875 412.587891 505.039063 412.587891 616.191406 C 412.587891 727.363281 502.705078 817.480469 613.857422 817.480469 L 905.166016 1108.769531 L 493.203156 1108.769531 C 414.589844 1030.166016 287.148438 1030.175781 208.535156 1108.769531 C 129.941406 1187.382813 129.941406 1314.824219 208.535156 1393.4375 C 287.148438 1472.031128 414.589844 1472.031128 493.203156 1393.4375 L 905.146423 1393.4375 L 613.867188 1684.716797 C 502.705078 1684.716797 412.587891 1774.824219 412.587891 1885.986328 C 412.587891 1997.158203 502.705078 2087.275391 613.857422 2087.275391 C 725.029236 2087.275391 815.146484 1997.158203 815.146484 1885.996094 L 1106.435547 1594.697266 L 1106.435547 2006.650391 C 1027.832031 2085.253906 1027.832031 2212.705078 1106.435547 2291.308594 C 1185.048828 2369.912109 1312.490234 2369.912109 1391.103516 2291.308594 C 1469.697266 2212.695313 1469.697266 2085.253906 1391.103516 2006.640625 L 1391.103516 1594.697266 L 1682.392456 1885.996094 C 1682.392456 1997.158203 1772.5 2087.265625 1883.661987 2087.265625 C 1994.833984 2087.265625 2084.951172 1997.158203 2084.951172 1885.996094 C 2084.951172 1774.824219 1994.833984 1684.716797 1883.671875 1684.716797 L 1592.363281 1393.417969 L 2004.326172 1393.417969 C 2082.939453 1472.031128 2210.380859 1472.031128 2288.974609 1393.417969 C 2367.587891 1314.814331 2367.587891 1187.363281 2288.974609 1108.759766"/>
</svg>
